<svg xmlns="http://www.w3.org/2000/svg" viewBox="0 0 42.88 141.59"><defs><style>.cls-1{fill:#ddb126;}.cls-2{fill:#ecbe23;}.cls-3{fill:#f3716a;}.cls-4{fill:#efdbd0;}.cls-5{fill:#140e10;}.cls-6{fill:#d4d5d9;}.cls-7{fill:#afb0b4;}</style></defs><g id="Layer_2" data-name="Layer 2"><g id="Layer_1-2" data-name="Layer 1"><path class="cls-1" d="M41.27,33.39,15.6,129.22s-1.1-2.41-6.91-4L33.84,31.4Z"/><path class="cls-2" d="M34.43,31.56,9.28,125.41c-5.35-1.44-7.38.14-7.38.14L27.58,29.72Z"/><path class="cls-3" d="M15.6,129.22s-1.57,5.85-2.55,8.12-3.58,4.91-6.61,4.1l-1.36-.37-1.36-.36c-3-.81-4-4.41-3.67-6.86s1.85-8.3,1.85-8.3,2-1.58,7.38-.14S15.6,129.22,15.6,129.22Z"/><path class="cls-4" d="M42.35,10.92,41.27,33.39l-2.11,2a.28.28,0,0,1-.46-.12L38,32.91a.28.28,0,0,0-.47-.12l-1.78,1.64a.28.28,0,0,1-.46-.12L34.56,32a.29.29,0,0,0-.47-.12l-1.78,1.65a.28.28,0,0,1-.46-.13l-.71-2.31a.3.3,0,0,0-.48-.13L28.89,32.6a.29.29,0,0,1-.47-.13l-.84-2.75,10.29-20,2.24.6Z"/><path class="cls-5" d="M42.36,10.93l-1,0A.77.77,0,0,1,41,10.8l-.68-.37a.92.92,0,0,0-.39-.11h-.78a.77.77,0,0,1-.39-.11l-.87-.47,5-9.73Z"/><rect class="cls-6" x="4.41" y="106.48" width="14.18" height="21.27" transform="matrix(0.97, 0.26, -0.26, 0.97, 30.7, 1.01)"/><rect class="cls-7" x="6.64" y="108.2" width="14.18" height="1.41" transform="matrix(0.97, 0.26, -0.26, 0.97, 28.65, 0.16)"/><rect class="cls-7" x="5.88" y="110.92" width="14.18" height="1.41" transform="matrix(0.97, 0.26, -0.26, 0.97, 29.33, 0.45)"/><rect class="cls-7" x="5.15" y="113.65" width="14.18" height="1.41" transform="translate(30.02 0.73) rotate(15)"/><rect class="cls-7" x="4.42" y="116.38" width="14.18" height="1.41" transform="translate(30.7 1.01) rotate(15)"/><rect class="cls-7" x="3.69" y="119.1" width="14.18" height="1.41" transform="matrix(0.97, 0.26, -0.26, 0.97, 31.38, 1.29)"/><rect class="cls-7" x="2.96" y="121.83" width="14.18" height="1.41" transform="translate(32.06 1.57) rotate(15)"/><rect class="cls-7" x="2.25" y="124.56" width="14.18" height="1.41" transform="matrix(0.97, 0.26, -0.26, 0.97, 32.74, 1.85)"/></g></g></svg>